<?xml version="1.0" encoding="utf-8"?>
<!-- Generator: Adobe Illustrator 16.0.0, SVG Export Plug-In . SVG Version: 6.00 Build 0)  -->
<!DOCTYPE svg PUBLIC "-//W3C//DTD SVG 1.1//EN" "http://www.w3.org/Graphics/SVG/1.1/DTD/svg11.dtd">
<svg version="1.1" id="Calque_1" xmlns="http://www.w3.org/2000/svg" xmlns:xlink="http://www.w3.org/1999/xlink" x="0px" y="0px"
	 width="439.915px" height="199.509px" viewBox="0 0 439.915 199.509" enable-background="new 0 0 439.915 199.509"
	 xml:space="preserve">
<g>
	<g>
		<path fill="#FFFFFF" d="M23.421,10.723c1.884,10.593,2.75,21.412,2.234,32.166c-0.436,9.093-2.176,21.155-10.659,26.452
			c-8.237,5.143-16.234-15.8-2.442-11.298c8.961,2.925,15.254,11.082,22.807,16.309c7.855,5.436,17.157,5.427,25.75,1.681
			c6.582-2.869,14.746-8.98,10.906-17.223c-1.977-4.242-8.462-7.731-11.63-2.506c-0.965,1.592-1.287,3.249-1.528,5.07
			c-0.423,3.189,4.583,3.148,5,0c0.481-3.63,2.752-2.948,3.819-0.002c2.055,5.674-6.06,9.136-9.955,10.665
			c-10.904,4.278-18.792-0.649-26.865-7.648c-6.195-5.371-13.013-11.127-21.45-12.138c-4.82-0.578-8.698,2.693-9.299,7.384
			c-1.261,9.85,8.694,19.466,18.018,13.645c7.282-4.547,10.282-13.787,11.622-21.748c1.814-10.779,1.176-21.972-0.105-32.771
			c-0.372-3.135-0.847-6.259-1.4-9.367C27.679,6.223,22.861,7.57,23.421,10.723L23.421,10.723z"/>
	</g>
</g>
<g>
	<g>
		<path fill="#FFFFFF" d="M27.86,39.19c7.716,4.305,16.805,4.992,24.892,1.316c2.932-1.333,0.388-5.641-2.523-4.317
			c-6.396,2.907-13.814,2.048-19.845-1.316C27.565,33.301,25.044,37.62,27.86,39.19L27.86,39.19z"/>
	</g>
</g>
<g>
	<g>
		<path fill="#FFFFFF" d="M25.167,11.811c9.916,4.029,38.648,24.304,40.884,1.585c0.596-6.06-4.933-16.864-12.501-12.304
			c-6.079,3.663-5.887,13.691,1.222,15.981c3.078,0.992,4.385-3.837,1.329-4.821c-5.211-1.679,1.335-12.125,4.457-3.26
			c1.755,4.984-0.252,10.078-5.882,10.094c-9.96,0.028-19.287-8.483-28.18-12.097C23.508,5.775,22.221,10.614,25.167,11.811
			L25.167,11.811z"/>
	</g>
</g>
<g>
	<g>
		<path fill="#FFFFFF" d="M73.652,67.089c9.014-7.544,22.336-22.01,19.915-34.954c-0.791-4.228-3.383-11.58-9.102-9.344
			c-4.874,1.905-7.283,8.677-8.802,13.186c-2.928,8.689,0.642,20.038,3.752,28.219c3.089,8.125,9.97,15.461,16.997,6.335
			c1.967-2.555-2.38-5.04-4.317-2.523c-4.612,5.99-7.952-5.149-9.076-8.607c-1.9-5.841-3.591-12.518-3.397-18.712
			c0.12-3.849,2.653-8.332,4.751-11.422c3.91-5.759,4.43,6.912,3.779,9.515C85.749,48.39,77.528,57.35,70.117,63.554
			C67.642,65.625,71.198,69.144,73.652,67.089L73.652,67.089z"/>
	</g>
</g>
<g>
	<g>
		<path fill="#FFFFFF" d="M97.749,61.58c-2.801,2.962-4.424,6.751-2.246,10.565c1.911,3.347,6.338,4.897,9.949,5.245
			c8.038,0.774,16.671-4.867,15.088-13.787c-1.157-6.521-9.784-8.55-15.272-7.673c-7.342,1.173-10.238,7.335-7.252,13.943
			c1.326,2.935,5.634,0.39,4.317-2.523c-3.567-7.896,10.079-8.568,13.087-3.329c2.547,4.436-3.948,8.211-7.417,8.457
			c-4.575,0.323-11.421-2.389-6.719-7.362C103.497,62.775,99.968,59.233,97.749,61.58L97.749,61.58z"/>
	</g>
</g>
<g>
	<g>
		<path fill="#FFFFFF" d="M118.41,58.796c-2.573,6.062-2.117,15.861,4.443,19.347c6.595,3.503,15.224-3.537,15.676-10.23
			c0.395-5.836-5.105-10.893-10.199-12.565c-6.594-2.165-10.621,3.174-10.261,9.315c0.188,3.204,5.189,3.223,5,0
			c-0.202-3.453,0.691-5.558,4.299-4.373c2.772,0.91,5.829,3.806,6.146,6.824c0.387,3.686-5.093,8.329-8.545,6.495
			c-3.667-1.949-3.614-9.053-2.241-12.289C123.972,58.388,119.667,55.837,118.41,58.796L118.41,58.796z"/>
	</g>
</g>
<g>
	<g>
		<path fill="#FFFFFF" d="M134.605,31.762c-1.765,9.284-2.368,18.766-1.947,28.203c0.276,6.183,1.169,14.506,6.604,18.531
			c3.703,2.743,7.942,1.711,11.107-1.294c4.278-4.061,5.247-10.922,4.937-16.486c-0.155-2.783-4.105-3.448-4.911-0.665
			c-2.72,9.394,6.444,22.359,15.362,12.958c2.218-2.337-1.312-5.878-3.535-3.535c-5.353,5.642-8.217-3.911-7.006-8.094
			c-1.637-0.222-3.274-0.443-4.911-0.665c0.237,4.256-0.22,8.856-2.927,12.346c-2.854,3.68-5.693,1.619-7.475-1.78
			c-2.737-5.223-2.389-12.14-2.384-17.862c0.006-6.806,0.637-13.644,1.907-20.328C140.026,29.941,135.207,28.597,134.605,31.762
			L134.605,31.762z"/>
	</g>
</g>
<g>
	<g>
		<path fill="#FFFFFF" d="M157.848,46.894c-0.229-0.883-0.543-1.744-1.16-2.432c-0.875-0.976-2.241-1.062-3.362-0.505
			c-1.473,0.733-1.693,2.829-1.705,4.259c-0.011,1.363,1.146,2.5,2.5,2.5c1.371,0,2.489-1.137,2.5-2.5
			c0.002-0.247,0.111-1.354-0.019-0.391c0.044-0.329,0.393-1.139-0.03-0.228c0.011-0.02,0.021-0.04,0.032-0.06
			c-0.188,0.311-0.44,0.556-0.755,0.737c-1.112,0.471-2.026,0.362-2.742-0.327c-0.308-0.427-0.393-0.535-0.256-0.324
			c0.31,0.487-0.183-0.519-0.018-0.061c0.078,0.216,0.134,0.439,0.192,0.661c0.342,1.318,1.777,2.104,3.075,1.746
			C157.429,49.604,158.189,48.212,157.848,46.894L157.848,46.894z"/>
	</g>
</g>
<g>
	<g>
		<path fill="#FFFFFF" d="M170.363,71.694c3.094-3.056,7.847-9.758,2.465-13.219c-3.728-2.398-8.627-0.208-10.175,3.704
			c-2.418,6.109,1.737,13.703,7.625,15.913c6.07,2.278,15.544,1.475,18.896-4.929c1.493-2.853-2.822-5.381-4.317-2.523
			c-1.743,3.331-6.314,3.755-9.653,3.553c-4.799-0.291-7.978-3.847-8.184-8.557c-0.073-1.683,1.035-3.563,2.922-3.068
			c1.718,0.451-2.812,5.292-3.116,5.592C164.531,70.427,168.068,73.961,170.363,71.694L170.363,71.694z"/>
	</g>
</g>
<g>
	<g>
		<path fill="#FFFFFF" d="M226.053,73.88c5.308,17.881,13.161,38.92-1.175,54.901c-3.409,3.8-11.011,10.982-16.723,8.309
			c-3.361-1.573-4.528-7.367-3.201-10.493c1.873-4.409,6.269-1.084,7.283,1.89c0.214-0.812,0.429-1.622,0.643-2.433
			c-0.193,0.248-0.386,0.497-0.578,0.746c1.224,0.94,2.448,1.882,3.672,2.823c0.01-0.195,0.068-0.376,0.174-0.54
			c1.386-2.893-2.924-5.431-4.317-2.523c-0.269,0.561-0.536,1.129-0.678,1.734c-0.526,2.225,1.705,3.787,3.672,2.823
			c4.623-2.265,0.998-8.326-2.084-10.181c-3.622-2.181-7.746-1.758-10.767,1.222c-7.261,7.164,0.363,21.818,10.237,20.28
			c9.892-1.54,19.267-11.282,22.708-20.335c6.542-17.211,0.92-32.824-4.046-49.552C229.958,69.468,225.133,70.782,226.053,73.88
			L226.053,73.88z"/>
	</g>
</g>
<g>
	<g>
		<path fill="#FFFFFF" d="M219.857,84.215c-9.489-6.305-9.697-19.72-2.248-27.499c5.751-6.006,14.076-2.814,20.077,0.905
			c12.431,7.704,23.562,21.361,28.94,34.948c5.342,13.494,9.49,33.957-2.188,45.381c-5.416,5.298-16.389,8.472-22.705,3.138
			c-5.447-4.601-3.552-11.783,3.836-11.425c-0.804-0.611-1.607-1.224-2.411-1.835c0.041,0.26,0.081,0.52,0.122,0.779
			c0.582-1.024,1.164-2.05,1.746-3.075c-0.748,0.315-1.322,0.575-1.883,1.18c-2.19,2.359,1.337,5.903,3.535,3.535
			c-0.107,0.036-0.215,0.071-0.323,0.106c1.372-0.577,1.979-1.585,1.746-3.075c-0.041-0.26-0.081-0.52-0.122-0.78
			c-0.174-1.118-1.392-1.786-2.411-1.835c-6.387-0.31-11.744,3.055-12.047,9.799c-0.295,6.554,5.223,11.809,11.005,13.675
			c7.88,2.543,17.579-1.411,23.446-6.65c6.012-5.369,8.197-13.702,8.69-21.446c1.022-16.051-5.116-32.721-14.621-45.432
			c-8.204-10.971-23.53-29.007-39.259-26.043c-18.813,3.546-19.769,30.454-5.45,39.968C220.028,90.323,222.528,85.99,219.857,84.215
			L219.857,84.215z"/>
	</g>
</g>
<g>
	<g>
		<path fill="#FFFFFF" d="M269.474,136.381c2.065,8.906,17.437,1.198,21.682-1.22c6.748-3.844,15.028-13.075,3.896-17.389
			c-9.178-3.556-18.614,5.06-16.666,14.427c2.476,11.903,20.042,9.692,28.378,7.266c1.376-0.4,2.019-1.725,1.746-3.075
			c-0.001-0.007-0.003-0.015-0.004-0.022c-0.637-3.159-5.456-1.818-4.821,1.33c0.001,0.007,0.003,0.015,0.004,0.021
			c0.582-1.024,1.164-2.05,1.746-3.075c-6.255,1.82-15.728,3.75-20.919-1.334c-5.027-4.924,2.143-12.179,7.615-11.181
			c7.9,1.442-0.347,6.837-3.498,8.715c-1.644,0.979-13.783,6.598-14.337,4.207C273.567,131.911,268.747,133.243,269.474,136.381
			L269.474,136.381z"/>
	</g>
</g>
<g>
	<g>
		<path fill="#FFFFFF" d="M313.553,101.499c-1.852,5.565-3.456,11.221-4.639,16.968c-1.179,5.729-2.26,12.664,1.751,17.593
			c3.738,4.594,9.638,5.146,15.115,4.075c2.568-0.502,9.083-2.537,7.726-6.399c-1.062-3.021-5.894-1.721-4.821,1.33
			c-0.479-1.362,1.042-1.95-0.244-1.159c-0.548,0.337-1.149,0.562-1.75,0.783c-1.864,0.685-3.82,0.952-5.795,0.973
			c-4.914,0.052-7.918-3.489-8.063-8.232c-0.249-8.155,2.993-16.943,5.542-24.602C319.395,99.76,314.565,98.455,313.553,101.499
			L313.553,101.499z"/>
	</g>
</g>
<g>
	<g>
		<path fill="#FFFFFF" d="M313.332,125.716c2.915-0.055,5.744-0.702,8.559-1.405c3.127-0.78,1.8-5.602-1.329-4.821
			c-2.39,0.596-4.755,1.18-7.23,1.226C310.112,120.776,310.106,125.776,313.332,125.716L313.332,125.716z"/>
	</g>
</g>
<g>
	<g>
		<path fill="#FFFFFF" d="M332.884,123.27c-8.726,17.997,21.007,27.8,26.999,10.194c3.171-9.319-2.804-18.243-12.433-18.625
			c-5.419-0.215-16.313,3.693-12.592,10.956c1.471,2.87,5.785,0.34,4.317-2.524c-1.165-2.273,7.634-3.457,8.97-3.404
			c6.847,0.272,8.555,7.453,6.665,13.007c-3.425,10.065-23.043,4.129-17.608-7.079C338.602,122.906,334.291,120.369,332.884,123.27
			L332.884,123.27z"/>
	</g>
</g>
<g>
	<g>
		<path fill="#FFFFFF" d="M337.728,123.401c8.954,5.22,23.32,17.338,31.87,4.391c1.844-2.792,3.521-7.783,0.516-10.504
			c-3.11-2.816-8.72-2.457-11.715,0.483c-6.448,6.331-2.562,18.697,3.949,23.54c4.126,3.068,8.375,2.207,13.048,0.932
			c2.496-0.681,10.252-2.179,10.172-5.868c-0.07-3.22-5.07-3.227-5,0c1.078-1.535,1.153-1.989,0.228-1.364
			c-0.523,0.261-1.059,0.494-1.606,0.7c-1.318,0.529-2.675,0.962-4.029,1.389c-2.689,0.849-6.206,2.2-8.894,0.846
			c-4.696-2.366-7.007-9.718-5.717-14.532c0.467-1.744,4.42-4.747,6-2.604c1.579,2.143-2.35,5.763-3.798,6.708
			c-7.106,4.643-16.77-5.092-22.5-8.433C337.46,117.456,334.945,121.778,337.728,123.401L337.728,123.401z"/>
	</g>
</g>
<g>
	<g>
		<path fill="#FFFFFF" d="M383.2,120.584c-0.199,7.88-3.576,25.333,10.036,23.201c8.917-1.396,10.061-17.829,9.438-24.517
			c-0.21-2.253-3.448-3.693-4.658-1.262c-3.762,7.559-1.643,28.389,10.718,25.384c3.132-0.762,1.803-5.584-1.33-4.822
			c-6.675,1.623-6.869-14.425-5.071-18.038c-1.553-0.42-3.105-0.841-4.658-1.262c0.504,5.407,0.179,15.54-4.599,19.17
			c-4.095,3.111-5.604-3.846-5.693-6.415c-0.133-3.837,0.722-7.616,0.818-11.439C388.281,117.358,383.281,117.366,383.2,120.584
			L383.2,120.584z"/>
	</g>
</g>
<g>
	<g>
		<path fill="#FFFFFF" d="M399.723,139.457c21.561,17.205,37.467-18.42,39.854-35.338c1.376-9.751-1.309-21.208-10.468-26.438
			c-8.979-5.127-15.32,5.824-16.673,13.061c-1.692,9.052,1.519,18.961,4.264,27.474c3.362,10.427,7.491,20.591,10.237,31.213
			c2.512,9.713,3.746,20.489-1.354,29.587c-4.639,8.273-15.212,15.11-24.73,15.319c-6.319,0.14-10.027-5.41-10.193-11.271
			c-0.078-2.761,1.468-5.129,3.786-6.468c3.405-1.967,7.49,0.781,9.883,2.992c-0.131-1.01-0.261-2.02-0.392-3.029
			c-0.121,0.203-0.243,0.406-0.365,0.609c0.941-0.384,1.883-0.767,2.823-1.149c-1.096-0.166-1.849-0.182-2.938,0.049
			c-3.153,0.67-1.815,5.49,1.33,4.822c0.093-0.017,0.186-0.033,0.278-0.05c1.139,0.173,2.194-0.101,2.823-1.148
			c0.122-0.203,0.244-0.406,0.366-0.609c0.56-0.934,0.423-2.277-0.392-3.029c-6.368-5.884-16.292-7.378-20.906,1.412
			c-4.187,7.977,1.259,18.294,9.163,21.168c8.42,3.062,18.707-2.509,25.152-7.481c6.781-5.231,11.41-12.63,12.491-21.187
			c2.614-20.702-9.034-40.87-14.405-60.256c-1.243-4.491-2.144-9.066-2.294-13.731c-0.157-4.888,1.48-14.271,7.86-14.428
			c6.132-0.151,9.517,10.351,9.967,15.038c0.609,6.349-1.205,12.814-3.299,18.738c-3.794,10.736-14.684,31.488-28.334,20.596
			C400.765,133.933,397.202,137.446,399.723,139.457L399.723,139.457z"/>
	</g>
</g>
</svg>
